<svg id="Layer_1" data-name="Layer 1" xmlns="http://www.w3.org/2000/svg" viewBox="0 0 141 142"><defs><style>.cls-1{fill:#bfd3ff;}.cls-2{fill:#749bff;}.cls-3{fill:none;stroke:#000;stroke-miterlimit:10;}</style></defs><title>Logo1</title><path class="cls-1" d="M100.5,170a56.9,56.9,0,0,0,8.3-.6,55,55,0,1,1-63-90A69.4,69.4,0,0,0,41,105C41,140.9,67.6,170,100.5,170Z" transform="translate(-19.5 -39.5)"/><path class="cls-1" d="M100.5,40c32.9,0,59.5,29.1,59.5,65,0,32.8-22.2,59.9-51.2,64.4a55,55,0,0,0-63-90C54.9,56.2,76,40,100.5,40Z" transform="translate(-19.5 -39.5)"/><path class="cls-2" d="M75,71a55,55,0,0,1,33.8,98.4,56.9,56.9,0,0,1-8.3.6C67.6,170,41,140.9,41,105a69.4,69.4,0,0,1,4.8-25.6A55,55,0,0,1,75,71Z" transform="translate(-19.5 -39.5)"/><path class="cls-3" d="M45.8,79.4a55,55,0,0,1,63,90,55,55,0,1,1-63-90Z" transform="translate(-19.5 -39.5)"/><path class="cls-3" d="M45.8,79.4C54.9,56.2,76,40,100.5,40c32.9,0,59.5,29.1,59.5,65,0,32.8-22.2,59.9-51.2,64.4a56.9,56.9,0,0,1-8.3.6C67.6,170,41,140.9,41,105A69.4,69.4,0,0,1,45.8,79.4Z" transform="translate(-19.5 -39.5)"/></svg>